<?xml version="1.0" encoding="iso-8859-1"?>
<!-- Generator: Adobe Illustrator 23.0.3, SVG Export Plug-In . SVG Version: 6.00 Build 0)  -->
<svg version="1.1" xmlns="http://www.w3.org/2000/svg" xmlns:xlink="http://www.w3.org/1999/xlink" x="0px" y="0px"
	 viewBox="0 0 16 16" style="enable-background:new 0 0 16 16;" xml:space="preserve">
<g id="Livello_1">
</g>
<g id="S4">
	<g>
		<path style="fill:#FFFFFF;" d="M10.318,3.682c0.56,0,1.088,0.211,1.495,0.6c0.237,0.226,0.415,0.495,0.528,0.79
			c0.144,0.375-0.136,0.778-0.538,0.778h-0.001c-0.235,0-0.451-0.141-0.534-0.361c-0.053-0.14-0.137-0.268-0.25-0.375
			c-0.203-0.194-0.47-0.294-0.752-0.28C9.749,4.857,9.324,5.282,9.3,5.801C9.282,6.201,9.491,6.572,9.875,6.772
			C9.902,6.786,9.93,6.798,9.959,6.807c0.236,0.08,0.475,0.079,0.692,0.004c0.147-0.051,0.295-0.073,0.439-0.065
			c0.71,0.039,1.364,0.351,1.843,0.877c0.737,0.811,0.955,2.019,0.471,3.143c-0.241,0.56-0.688,1.008-1.243,1.262
			c-1.792,0.82-3.551-0.207-3.97-1.775C8.093,9.891,8.371,9.535,8.747,9.535h0c0.262,0,0.487,0.179,0.557,0.431
			c0.19,0.692,0.824,1.202,1.575,1.202c0.901,0,1.633-0.733,1.633-1.633c0-0.885-0.634-1.589-1.476-1.64
			c-0.002,0-0.004,0.001-0.008,0.002c-0.446,0.155-0.934,0.161-1.413,0.009C9.485,7.865,9.359,7.809,9.241,7.738
			c-0.732-0.439-1.127-1.187-1.09-1.99c0.025-0.538,0.25-1.046,0.634-1.43c0.384-0.384,0.892-0.609,1.43-0.634
			C10.25,3.682,10.284,3.682,10.318,3.682z M11.04,7.894L11.04,7.894L11.04,7.894z"/>
	</g>
	<g>
		<circle cx="10.893" cy="9.506" r="1.657"/>
	</g>
	<g>
		<defs>
			<path id="SVGID_1_" d="M10.124,10.014h1.539c0.178,0,0.323-0.145,0.323-0.323V9.457c0-0.198-0.176-0.349-0.372-0.319
				l-1.539,0.234c-0.1,0.015-0.188,0.077-0.236,0.166h0C9.724,9.753,9.88,10.014,10.124,10.014z"/>
		</defs>
		<use xlink:href="#SVGID_1_"  style="overflow:visible;fill:#ED1C24;"/>
		<clipPath id="SVGID_2_">
			<use xlink:href="#SVGID_1_"  style="overflow:visible;"/>
		</clipPath>
		<g style="clip-path:url(#SVGID_2_);">
			<circle cx="10.845" cy="9.282" r="0.516"/>
		</g>
		<g style="clip-path:url(#SVGID_2_);">
			<circle style="fill:#FFFFFF;" cx="10.893" cy="9.268" r="0.18"/>
		</g>
	</g>
</g>
<g id="S3">
	<g>
		<g>
			<path style="fill:#FFFFFF;" d="M5.785,3.684c0.538,0.025,1.046,0.25,1.43,0.634c0.384,0.384,0.609,0.892,0.634,1.43
				c0.037,0.803-0.358,1.551-1.09,1.99C6.641,7.809,6.515,7.865,6.384,7.907C5.905,8.058,5.418,8.053,4.971,7.897
				C4.968,7.896,4.966,7.896,4.964,7.895C4.121,7.946,3.488,8.65,3.488,9.535c0,0.9,0.733,1.633,1.633,1.633
				c0.751,0,1.386-0.51,1.575-1.202C6.765,9.714,6.99,9.535,7.253,9.535h0c0.376,0,0.654,0.355,0.557,0.718
				c-0.419,1.568-2.178,2.595-3.97,1.775c-0.555-0.254-1.001-0.702-1.243-1.262C2.112,9.642,2.33,8.434,3.067,7.623
				C3.546,7.097,4.2,6.786,4.91,6.746C5.054,6.738,5.202,6.76,5.349,6.811c0.217,0.075,0.456,0.075,0.692-0.004
				c0.029-0.01,0.057-0.022,0.084-0.036C6.509,6.572,6.718,6.201,6.7,5.801C6.676,5.282,6.251,4.857,5.732,4.833
				C5.45,4.819,5.183,4.919,4.98,5.113C4.868,5.22,4.784,5.348,4.731,5.489c-0.083,0.22-0.299,0.361-0.534,0.361H4.196
				c-0.402,0-0.682-0.403-0.538-0.778c0.113-0.295,0.292-0.564,0.528-0.79c0.407-0.389,0.935-0.6,1.495-0.6
				C5.716,3.682,5.75,3.682,5.785,3.684z M4.96,7.894L4.96,7.894L4.96,7.894z"/>
		</g>
	</g>
	<circle cx="5.12" cy="9.506" r="1.657"/>
	<g>
		<defs>
			<path id="SVGID_3_" d="M5.89,10.014H4.351c-0.178,0-0.323-0.145-0.323-0.323V9.457c0-0.198,0.176-0.349,0.372-0.319l1.539,0.234
				c0.1,0.015,0.188,0.077,0.236,0.166h0C6.29,9.753,6.134,10.014,5.89,10.014z"/>
		</defs>
		<use xlink:href="#SVGID_3_"  style="overflow:visible;fill:#ED1F24;"/>
		<clipPath id="SVGID_4_">
			<use xlink:href="#SVGID_3_"  style="overflow:visible;"/>
		</clipPath>
		<circle style="clip-path:url(#SVGID_4_);" cx="5.169" cy="9.282" r="0.516"/>
		<circle style="clip-path:url(#SVGID_4_);fill:#FFFFFF;" cx="5.12" cy="9.268" r="0.18"/>
	</g>
</g>
</svg>
